<?xml version="1.0" encoding="UTF-8"?>
<svg xmlns="http://www.w3.org/2000/svg" width="34" height="34" viewBox="0 0 34 34" role="img" aria-label="LinkedIn Logo">
  <title>LinkedIn</title>
  <rect fill="#0077B5" width="34" height="34" rx="4" ry="4"/>
  <path fill="#FFFFFF" d="M10.1 14.5H6.9V26H10.1V14.5ZM8.5 8C7.3 8 6.4 8.9 6.4 10.1C6.4 11.3 7.3 12.2 8.5 12.2C9.7 12.2 10.6 11.3 10.6 10.1C10.6 8.9 9.7 8 8.5 8ZM27 26H23.8V20.1C23.8 18.7 23.8 16.9 21.9 16.9C20 16.9 19.7 18.4 19.7 20V26H16.5V14.5H19.5V16H19.5C20 15.1 21.2 14.2 23 14.2C26.6 14.2 27 16.6 27 19.3V26Z"/>
</svg>
